<svg width="36" height="60" xmlns="http://www.w3.org/2000/svg">
 <title/>
 <desc/>

 <g>
  <title>background</title>
  <rect fill="none" id="canvas_background" height="402" width="582" y="-1" x="-1"/>
 </g>
 <g>
  <title>Layer 1</title>
  <path fill="#ffffff" id="social-facebook" d="m35.958,23.2871l-1.79,5.967c-0.159,0.53 -0.716,0.829 -1.245,0.671c-0.529,-0.159 -0.83,-0.717 -0.671,-1.245l1.404,-4.68l-12.656,0c-0.552,0 -1,-0.447 -1,-1l0,-7c0,-5 3.881,-5 7,-5l5,0l0,-9l-8,0c-8.86,0 -12,3.141 -12,12l0,9c0,0.553 -0.448,1 -1,1l-9,0l0,8l9,0c0.552,0 1,0.447 1,1l0,25l8,0l0,-25c0,-0.553 0.448,-1 1,-1l11,0c0.552,0 1,0.447 1,1c0,0.553 -0.448,1 -1,1l-10,0l0,25c0,0.553 -0.448,1 -1,1l-10,0c-0.552,0 -1,-0.447 -1,-1l0,-25l-9,0c-0.552,0 -1,-0.447 -1,-1l0,-10c0,-0.553 0.448,-1 1,-1l9,0l0,-8c0,-9.944 4.056,-14 14,-14l9,0c0.552,0 1,0.447 1,1l0,11c0,0.553 -0.448,1 -1,1l-6,0c-3.995,0 -5,0.353 -5,3l0,6l13,0c0.316,0 0.614,0.149 0.802,0.403c0.189,0.253 0.247,0.581 0.156,0.884"/>
 </g>
</svg>