<?xml version="1.0" encoding="utf-8"?>
<!-- Generator: Adobe Illustrator 22.0.1, SVG Export Plug-In . SVG Version: 6.00 Build 0)  -->
<svg version="1.1" id="Github" xmlns="http://www.w3.org/2000/svg" xmlns:xlink="http://www.w3.org/1999/xlink" x="0px" y="0px"
	 viewBox="0 0 71.7 69.9" style="enable-background:new 0 0 71.7 69.9;" xml:space="preserve">
<style type="text/css">
	.st0{fill:#FFFFFF;}
</style>
<g>
	<g id="github-github">
		<path class="st0" d="M35.8,0C16,0,0,16,0,35.8c0,15.8,10.3,29.3,24.5,34c1.8,0.3,2.4-0.8,2.4-1.7c0-0.9,0-3.7,0-6.7
			c-10,2.2-12.1-4.2-12.1-4.2c-1.6-4.1-4-5.2-4-5.2c-3.3-2.2,0.2-2.2,0.2-2.2c3.6,0.3,5.5,3.7,5.5,3.7c3.2,5.5,8.4,3.9,10.4,3
			c0.3-2.3,1.3-3.9,2.3-4.8c-8-0.9-16.3-4-16.3-17.7c0-3.9,1.4-7.1,3.7-9.6c-0.4-0.9-1.6-4.5,0.3-9.5c0,0,3-1,9.9,3.7
			c2.9-0.8,5.9-1.2,9-1.2c3,0,6.1,0.4,9,1.2c6.8-4.6,9.8-3.7,9.8-3.7c2,4.9,0.7,8.6,0.4,9.5c2.3,2.5,3.7,5.7,3.7,9.6
			c0,13.8-8.4,16.8-16.4,17.7c1.3,1.1,2.4,3.3,2.4,6.6c0,4.8,0,8.7,0,9.8c0,1,0.6,2.1,2.5,1.7c14.2-4.7,24.5-18.2,24.5-34
			C71.7,16,55.6,0,35.8,0z"/>
		<path class="st0" d="M13.6,51.5c-0.1,0.2-0.4,0.2-0.6,0.1c-0.3-0.1-0.4-0.4-0.3-0.5c0.1-0.2,0.4-0.2,0.6-0.1
			C13.5,51,13.7,51.3,13.6,51.5L13.6,51.5z"/>
		<path class="st0" d="M15,53.1c-0.2,0.2-0.5,0.1-0.7-0.2c-0.2-0.2-0.3-0.6-0.1-0.7c0.2-0.2,0.5-0.1,0.7,0.2
			C15.2,52.6,15.2,52.9,15,53.1L15,53.1z"/>
		<path class="st0" d="M16.4,55.1c-0.2,0.2-0.6,0-0.8-0.3c-0.2-0.3-0.2-0.7,0-0.9c0.2-0.2,0.6,0,0.8,0.3
			C16.7,54.6,16.7,55,16.4,55.1L16.4,55.1z"/>
		<path class="st0" d="M18.4,57.1c-0.2,0.2-0.6,0.2-0.9-0.1c-0.3-0.3-0.4-0.7-0.2-0.9c0.2-0.2,0.6-0.2,0.9,0.1
			C18.5,56.5,18.6,56.9,18.4,57.1L18.4,57.1z"/>
		<path class="st0" d="M21,58.3c-0.1,0.3-0.5,0.4-0.9,0.3c-0.4-0.1-0.7-0.5-0.6-0.7c0.1-0.3,0.5-0.4,0.9-0.3
			C20.9,57.7,21.1,58,21,58.3L21,58.3z"/>
		<path class="st0" d="M24,58.5c0,0.3-0.3,0.5-0.8,0.5c-0.4,0-0.8-0.2-0.8-0.5c0-0.3,0.3-0.5,0.8-0.5C23.6,58,24,58.2,24,58.5
			L24,58.5z"/>
		<path class="st0" d="M26.7,58c0.1,0.3-0.2,0.6-0.7,0.7c-0.4,0.1-0.8-0.1-0.9-0.4c-0.1-0.3,0.2-0.6,0.7-0.7
			C26.3,57.6,26.7,57.8,26.7,58L26.7,58z"/>
	</g>
</g>
</svg>
