<?xml version="1.0" encoding="utf-8"?>
<!-- Generator: Adobe Illustrator 22.0.0, SVG Export Plug-In . SVG Version: 6.00 Build 0)  -->
<svg version="1.1" id="Layer_1" xmlns="http://www.w3.org/2000/svg" xmlns:xlink="http://www.w3.org/1999/xlink" x="0px" y="0px"
	 viewBox="0 0 20 18" style="enable-background:new 0 0 20 18;" xml:space="preserve">
<style type="text/css">
	.st0{fill:#FFFFFF;}
</style>
<path class="st0" d="M19,2H1C0.5,2,0,1.6,0,1v0c0-0.6,0.5-1,1-1l18,0c0.6,0,1,0.5,1,1v0C20,1.6,19.5,2,19,2z"/>
<path class="st0" d="M19,10H1c-0.6,0-1-0.5-1-1v0c0-0.6,0.5-1,1-1h18c0.6,0,1,0.5,1,1v0C20,9.6,19.5,10,19,10z"/>
<path class="st0" d="M19,18H1c-0.6,0-1-0.5-1-1v0c0-0.6,0.5-1,1-1h18c0.6,0,1,0.5,1,1v0C20,17.6,19.5,18,19,18z"/>
</svg>
