<svg width="60" height="50" xmlns="http://www.w3.org/2000/svg">
 <title/>
 <desc/>

 <g>
  <title>background</title>
  <rect fill="none" id="canvas_background" height="402" width="582" y="-1" x="-1"/>
 </g>
 <g>
  <title>Layer 1</title>
  <path fill="#ffffff" id="social-twitter" d="m59.8242,7.1338c-1.574,2.354 -3.506,4.402 -5.75,6.096c0.011,0.348 0.017,0.699 0.017,1.049c0,17.179 -13.419,35.721 -35.098,35.721c-5.154,0 -8.526,-1.145 -10.447,-2.105c-0.494,-0.247 -0.695,-0.848 -0.448,-1.342c0.247,-0.494 0.847,-0.693 1.342,-0.447c1.729,0.864 4.789,1.894 9.553,1.894c20.444,0 33.098,-17.504 33.098,-33.721c0,-0.501 -0.014,-1.003 -0.034,-1.499c-0.014,-0.335 0.142,-0.656 0.413,-0.852c1.321,-0.954 2.53,-2.037 3.617,-3.24c-1.245,0.35 -2.518,0.603 -3.811,0.757c-0.468,0.058 -0.912,-0.224 -1.064,-0.671c-0.152,-0.447 0.028,-0.938 0.433,-1.181c1.471,-0.881 2.701,-2.081 3.605,-3.497c-1.676,0.739 -3.423,1.289 -5.222,1.642c-0.338,0.067 -0.686,-0.047 -0.921,-0.297c-2.054,-2.187 -4.954,-3.441 -7.958,-3.441c-6.008,0 -10.895,4.889 -10.895,10.898c0,0.853 0.094,1.689 0.279,2.484c0.072,0.306 -0.004,0.627 -0.206,0.868c-0.201,0.241 -0.491,0.372 -0.817,0.359c-9.305,-0.468 -18.059,-4.685 -24.252,-11.63c-0.547,1.317 -0.831,2.739 -0.831,4.18c0,3.65 1.812,7.041 4.847,9.073c0.371,0.248 0.532,0.712 0.396,1.136c-0.136,0.425 -0.522,0.745 -0.984,0.694c-1.457,-0.046 -2.902,-0.344 -4.257,-0.87c0.619,4.539 4.062,8.3 8.64,9.218c0.455,0.091 0.787,0.484 0.803,0.948c0.015,0.463 -0.29,0.877 -0.738,0.998c-1.325,0.36 -2.7,0.51 -4.074,0.434c1.78,3.612 5.451,5.99 9.572,6.068c0.423,0.007 0.795,0.281 0.929,0.682c0.135,0.402 0.002,0.844 -0.331,1.105c-4.429,3.471 -9.752,5.306 -15.391,5.306c-0.985,0 -1.979,-0.058 -2.956,-0.172c-0.548,-0.065 -0.941,-0.562 -0.876,-1.11c0.064,-0.55 0.561,-0.943 1.109,-0.877c0.9,0.106 1.816,0.159 2.723,0.159c4.333,0 8.461,-1.176 12.077,-3.424c-4.362,-1.011 -7.964,-4.244 -9.367,-8.626c-0.107,-0.336 -0.03,-0.705 0.204,-0.968c0.235,-0.265 0.59,-0.385 0.936,-0.32c0.274,0.053 0.549,0.094 0.824,0.126c-3.744,-2.293 -6.184,-6.428 -6.184,-11.016l0.003,-0.188c0.013,-0.347 0.206,-0.662 0.51,-0.833c0.302,-0.169 0.671,-0.171 0.976,-0.002c0.512,0.286 1.048,0.529 1.6,0.727c-1.911,-2.291 -2.991,-5.202 -2.991,-8.268c0,-2.281 0.603,-4.523 1.745,-6.484c0.165,-0.284 0.459,-0.469 0.785,-0.494c0.331,-0.025 0.647,0.111 0.854,0.365c5.607,6.875 13.765,11.194 22.542,11.978c-0.066,-0.535 -0.099,-1.078 -0.099,-1.626c0,-7.112 5.784,-12.898 12.895,-12.898c3.363,0 6.618,1.329 9.017,3.666c2.358,-0.519 4.614,-1.411 6.716,-2.655c0.356,-0.213 0.807,-0.182 1.132,0.078c0.325,0.259 0.456,0.691 0.33,1.087c-0.536,1.673 -1.404,3.204 -2.541,4.512c0.949,-0.28 1.878,-0.621 2.784,-1.024c0.408,-0.177 0.884,-0.07 1.171,0.271c0.287,0.34 0.314,0.829 0.066,1.199"/>
 </g>
</svg>