<svg width="60" height="48" xmlns="http://www.w3.org/2000/svg">
 <title/>
 <desc/>

 <g>
  <title>background</title>
  <rect fill="none" id="canvas_background" height="402" width="582" y="-1" x="-1"/>
 </g>
 <g>
  <title>Layer 1</title>
  <path fill="#ffffff" id="social-youtube" d="m58,21c0,-4.871 -0.562,-8.4 -0.568,-8.436c-0.164,-2.426 -0.878,-6.596 -2.139,-7.857c-1.444,-1.444 -3.568,-1.764 -4.974,-1.975c-0.303,-0.045 -0.571,-0.086 -0.793,-0.13c-4.012,-0.407 -10.245,-0.602 -19.521,-0.602c-8.014,0 -12.222,0.027 -20.226,0.642l-0.156,0.02c-1.144,0.14 -3.27,0.4 -4.916,2.045c-1.26,1.26 -1.968,5.43 -2.118,7.762c-0.017,0.133 -0.589,3.674 -0.589,8.531l0,6c0,4.871 0.562,8.4 0.568,8.436c0.164,2.426 0.878,6.596 2.139,7.857c1.444,1.444 3.568,1.764 4.974,1.975c0.303,0.045 0.571,0.086 0.793,0.13c4.012,0.407 10.245,0.602 19.521,0.602c8.014,0 12.222,-0.027 20.226,-0.642l0.156,-0.02c1.144,-0.14 3.27,-0.4 4.916,-2.045c1.26,-1.26 1.968,-5.43 2.118,-7.762c0.017,-0.133 0.589,-3.674 0.589,-8.531l0,-6zm2,0l0,6c0,5.032 -0.579,8.608 -0.604,8.758c-0.033,0.596 -0.486,6.746 -2.689,8.949c-2.133,2.133 -4.804,2.459 -6.087,2.616l-0.196,0.025c-8.127,0.625 -12.363,0.652 -20.429,0.652c-9.346,0 -15.643,-0.199 -19.818,-0.626c-0.289,-0.053 -0.526,-0.088 -0.793,-0.128c-1.564,-0.235 -4.181,-0.629 -6.091,-2.539c-2.203,-2.202 -2.664,-8.353 -2.71,-9.046c-0.014,-0.056 -0.583,-3.631 -0.583,-8.661l0,-6c0,-5.032 0.579,-8.608 0.604,-8.758c0.033,-0.596 0.486,-6.746 2.689,-8.949c2.133,-2.133 4.804,-2.459 6.087,-2.616l0.196,-0.025c8.127,-0.625 12.363,-0.652 20.429,-0.652c9.346,0 15.643,0.199 19.818,0.626c0.289,0.053 0.526,0.088 0.793,0.128c1.564,0.235 4.181,0.629 6.091,2.539c2.203,2.202 2.664,8.353 2.71,9.046c0.014,0.056 0.583,3.631 0.583,8.661l0,0zm-18,3c0,0.349 -0.182,0.672 -0.479,0.854l-14.005,8.558c-0.472,0.289 -1.087,0.14 -1.375,-0.332c-0.288,-0.472 -0.14,-1.087 0.332,-1.375l12.609,-7.705l-15.082,-9.217l0,20.217c0,0.553 -0.447,1 -1,1c-0.553,0 -1,-0.447 -1,-1l0,-22c0,-0.361 0.195,-0.695 0.511,-0.872c0.316,-0.176 0.702,-0.169 1.01,0.018l18,11c0.297,0.182 0.479,0.505 0.479,0.854l0,0z"/>
 </g>
</svg>